<svg width="28" height="28" viewBox="0 0 28 28" version="1.1" xmlns="http://www.w3.org/2000/svg" xmlns:xlink="http://www.w3.org/1999/xlink" xmlns:figma="http://www.figma.com/figma/ns">
<title>fb-icon</title>
<desc>Created using Figma</desc>
<g id="Canvas" transform="translate(-85 1967)" figma:type="canvas">
<g id="fb-icon" style="mix-blend-mode:normal;" figma:type="vector">
<use xlink:href="#path0_fill" transform="translate(85 -1967)" fill="#FFFFFF" style="mix-blend-mode:normal;"/>
</g>
</g>
<defs>
<path id="path0_fill" d="M 24.2267 0L 3.77306 0C 1.6893 0 0 1.68923 0 3.77306L 0 24.2268C 0 26.3106 1.68923 27.9999 3.77306 27.9999L 13.8607 27.9999L 13.8779 17.9942L 11.2784 17.9942C 10.9406 17.9942 10.6664 17.7211 10.6651 17.3832L 10.6526 14.158C 10.6513 13.8184 10.9263 13.5423 11.266 13.5423L 13.8607 13.5423L 13.8607 10.4259C 13.8607 6.80938 16.0695 4.84014 19.2957 4.84014L 21.943 4.84014C 22.2817 4.84014 22.5564 5.11474 22.5564 5.45352L 22.5564 8.17305C 22.5564 8.51169 22.282 8.78622 21.9434 8.78642L 20.3187 8.78718C 18.5642 8.78718 18.2245 9.6209 18.2245 10.8444L 18.2245 13.5424L 22.0798 13.5424C 22.4471 13.5424 22.7321 13.8631 22.6888 14.228L 22.3065 17.4532C 22.27 17.7618 22.0082 17.9944 21.6975 17.9944L 18.2417 17.9944L 18.2245 28L 24.2268 28C 26.3106 28 27.9998 26.3108 27.9998 24.227L 27.9998 3.77306C 27.9997 1.68923 26.3105 0 24.2267 0Z"/>
</defs>
</svg>
