<svg width="160" height="40" viewBox="0 0 160 40" version="1.1" xmlns="http://www.w3.org/2000/svg" xmlns:xlink="http://www.w3.org/1999/xlink" xmlns:figma="http://www.figma.com/figma/ns">
<title>forbes-logo</title>
<desc>Created using Figma</desc>
<g id="Canvas" transform="translate(926 -3037)" figma:type="canvas">
<g id="forbes-logo" style="mix-blend-mode:normal;" figma:type="vector">
<use xlink:href="#path0_fill" transform="translate(-926 3037)" fill="#000000" fill-opacity="0.2" style="mix-blend-mode:normal;"/>
</g>
</g>
<defs>
<path id="path0_fill" d="M 97.4511 11.4006C 94.9169 11.4006 92.8845 12.0796 90.7738 13.1124C 90.7935 7.15727 90.8706 1.96442 91.0115 1.41753e-08L 78.7177 2.36396L 78.7177 3.46627L 79.9164 3.61966C 81.6287 3.85332 82.2899 4.85158 82.4911 7.12993C 82.877 11.4952 82.8208 34.9278 82.4911 38.6831C 85.8005 39.4209 89.3846 39.9899 92.9723 39.9899C 102.729 39.9899 108.6 33.9884 108.6 24.4922C 108.601 16.8735 103.834 11.4006 97.4511 11.4006ZM 93.1664 38.0522C 92.4694 38.0522 91.5682 37.9411 91.0688 37.8507C 90.8741 35.2192 90.7565 24.3774 90.7678 14.9049C 91.8972 14.5256 92.6516 14.4358 93.6394 14.4358C 97.6786 14.4358 99.9458 19.077 99.9565 24.9375C 99.9709 32.3962 97.1686 38.0522 93.1664 38.0522ZM 32.506 11.6872L 30.5894 12.2175C 28.9153 6.6525 26.2522 3.50372 21.2729 3.50372L 14.8889 3.50372C 14.5926 7.05085 14.4786 12.9596 14.5072 19.1108L 18.8039 18.9747C 21.6593 18.8807 22.8562 16.773 23.546 13.6475L 25.1479 13.6475L 25.1479 26.67L 23.546 26.67C 22.8562 23.5445 21.6599 21.4385 18.8039 21.3422L 14.5198 21.2067C 14.564 25.8793 14.69 29.8569 14.8883 32.2178C 15.1785 35.6841 16.1258 37.2026 18.5936 37.5605L 20.7736 37.7924L 20.7736 39.3406L 0 39.3406L 0 37.7924L 1.71889 37.5617C 4.18255 37.2026 5.13218 35.6847 5.42244 32.2184C 5.89845 26.503 5.9755 14.6297 5.42244 7.99144C 5.13278 4.5222 4.18315 3.0043 1.71889 2.64637L 0 2.4139L 0 0.863891L 32.3316 0.863891L 32.506 11.6872ZM 42.8402 11.0915C 52.0277 11.0915 56.5943 17.2921 56.5943 25.4714C 56.5943 33.4563 51.44 39.9976 42.2507 39.9976C 33.059 39.9976 28.4913 33.7964 28.4913 25.6177C 28.4913 17.6334 33.6449 11.0915 42.8402 11.0915ZM 42.3612 12.8632C 38.2981 12.8632 37.161 18.3314 37.161 25.5434C 37.161 32.5615 38.9593 38.2241 42.7279 38.2241C 46.7887 38.2241 47.9264 32.7547 47.9264 25.5434C 47.9258 18.5288 46.1275 12.8632 42.3612 12.8632ZM 110.855 25.7978C 110.846 18.2297 115.646 11.1081 125.121 11.1081C 132.83 11.1081 136.507 16.7968 136.55 24.2377L 119.354 24.2377C 119.165 30.9883 122.598 35.9451 129.171 35.9451C 132.063 35.9451 133.622 35.2334 135.368 33.9022L 136.176 34.8672C 134.272 37.4993 130.291 39.9952 125.006 39.9952C 116.724 39.9964 110.868 34.1549 110.855 25.7978ZM 119.42 22.3137L 128.039 22.1288C 128.081 18.3314 127.471 12.9066 124.37 12.9066C 121.247 12.9072 119.493 18.0412 119.42 22.3137ZM 158.642 19.6061L 157.236 19.9724C 155.739 15.1404 153.462 13.0797 150.127 13.0797C 147.907 13.0797 146.307 14.7361 146.307 17.1488C 146.307 19.5401 148.108 20.8018 153.299 22.8036C 158.101 24.6545 160 26.7806 160 30.6619C 160 36.4428 155.553 40 148.228 40C 144.715 40 140.807 39.2193 138.518 38.2996L 138.273 30.2962L 139.679 29.9294C 141.692 35.5254 144.312 37.5611 147.778 37.5611C 150.718 37.5611 152.358 35.4802 152.358 33.2595C 152.358 31.1025 151.124 29.8004 146.433 28.1338C 142.078 26.5856 138.925 24.6806 138.925 19.8332C 138.925 15.1243 143.114 11.0921 150.029 11.0921C 153.243 11.0921 156.292 11.6521 158.335 12.5838L 158.642 19.6061ZM 77.5752 19.3855C 73.8507 16.9003 69.8455 17.9871 69.0195 19.3374C 68.7329 23.8138 68.8021 30.6779 69.1073 34.1276C 69.3074 36.4071 69.9674 37.4048 71.6845 37.6408L 73.9062 37.793L 73.9062 39.3418L 56.8452 39.3418L 56.8452 37.793L 58.0409 37.6408C 59.7556 37.4054 60.4155 36.4071 60.6174 34.1276C 60.9519 30.3717 61.0008 22.567 60.6174 18.2035C 60.4155 15.9222 59.755 14.9234 58.0409 14.6885L 56.8452 14.5339L 56.8452 13.4322L 69.0978 11.0695L 68.9592 17.4485C 71.823 10.8917 77.4754 10.0213 80.5775 11.8662L 77.5752 19.3855Z"/>
</defs>
</svg>
