<svg width="180" height="30" viewBox="0 0 180 30" version="1.1" xmlns="http://www.w3.org/2000/svg" xmlns:xlink="http://www.w3.org/1999/xlink" xmlns:figma="http://www.figma.com/figma/ns">
<title>verge-logo</title>
<desc>Created using Figma</desc>
<g id="Canvas" transform="translate(526 -3042)" figma:type="canvas">
<g id="verge-logo" style="mix-blend-mode:normal;" figma:type="vector">
<use xlink:href="#path0_fill" transform="translate(-526 3042)" fill="#000000" fill-opacity="0.2" style="mix-blend-mode:normal;"/>
<use xlink:href="#path1_fill" transform="translate(-526 3042)" fill="#000000" fill-opacity="0.2" style="mix-blend-mode:normal;"/>
<use xlink:href="#path2_fill" transform="translate(-526 3042)" fill="#000000" fill-opacity="0.2" style="mix-blend-mode:normal;"/>
<use xlink:href="#path3_fill" transform="translate(-526 3042)" fill="#000000" fill-opacity="0.2" style="mix-blend-mode:normal;"/>
<use xlink:href="#path4_fill" transform="translate(-526 3042)" fill="#000000" fill-opacity="0.2" style="mix-blend-mode:normal;"/>
<use xlink:href="#path5_fill" transform="translate(-526 3042)" fill="#000000" fill-opacity="0.2" style="mix-blend-mode:normal;"/>
<use xlink:href="#path6_fill" transform="translate(-526 3042)" fill="#000000" fill-opacity="0.2" style="mix-blend-mode:normal;"/>
</g>
</g>
<defs>
<path id="path0_fill" d="M 160.706 11.2805L 160.706 23.1753C 160.706 24.17 160.706 24.4739 160.692 26.491C 158.428 28.4389 154.28 30 150.033 30C 141.469 30 134.859 23.0234 134.859 14.7481C 134.859 12.7725 135.239 10.7832 135.984 8.94574C 137.264 5.82351 139.683 3.19863 142.734 1.65134C 146.112 -0.0621934 149.748 -0.0260365 153.425 0.0105588C 153.958 0.0158541 154.491 0.0211495 155.025 0.0211495L 157.289 0.0211495L 157.289 8.66944C 157.289 8.66944 152.325 8.65561 150.23 8.65561C 146.77 8.65561 144.281 11.5568 144.281 14.831C 144.281 18.1052 146.841 20.7853 150.3 20.7853C 151.144 20.7853 151.959 20.6057 152.339 20.2742L 152.339 17.9118L 147.375 17.9118L 147.375 11.2805L 160.706 11.2805Z"/>
<path id="path1_fill" d="M 0 8.13063L 0 0.104054L 15.0188 0.104054L 15.0188 29.2954L 5.58281 29.2954L 5.58281 8.13063L 0 8.13063Z"/>
<path id="path2_fill" d="M 26.5359 11.1976L 30.9516 11.1976L 30.9516 0.104054L 40.4016 0.104054L 40.4016 29.2954L 30.9516 29.2954L 30.9516 18.2571L 26.5359 18.2571L 26.5359 29.2954L 17.1141 29.2954L 17.1141 0.104054L 28.7578 0.104054L 28.7578 8.11683L 26.5359 8.11683L 26.5359 11.1976Z"/>
<path id="path3_fill" d="M 59.9484 29.2954L 42.4688 29.2954L 42.4688 0.104054L 59.9484 0.104054L 59.9484 8.13063L 51.4828 8.13063L 51.4828 11.1976L 56.8687 11.1976L 56.8687 17.8565L 51.4828 17.8565L 51.4828 21.255L 59.9484 21.255L 59.9484 29.2954Z"/>
<path id="path4_fill" fill-rule="evenodd" d="M 122.808 0.104054C 129.53 0.104054 134.269 3.68216 134.269 9.98188C 134.269 13.9192 132.891 16.6131 130.134 18.0914L 137.784 29.2816L 127.139 29.2816L 121.739 21.8076L 121.739 29.2816L 112.303 29.2816L 112.303 0.104054L 122.808 0.104054ZM 121.711 7.78525L 121.711 13.2146C 123.258 13.2146 125.269 12.6758 125.269 10.5068C 125.269 10.3867 125.254 10.2664 125.24 10.1568C 125.235 10.1152 125.23 10.0751 125.227 10.0371C 125.213 10.0233 125.213 9.99567 125.213 9.98188C 125.194 9.92063 125.178 9.85938 125.162 9.79934C 125.143 9.72392 125.123 9.65043 125.1 9.58122C 124.622 8.17208 123.019 7.78525 121.711 7.78525Z"/>
<path id="path5_fill" d="M 78.5531 17.8841L 78.6375 17.8841L 84.0938 0.0902251L 110.208 0.0902251L 110.208 8.13063L 101.742 8.13063L 101.742 11.1976L 107.114 11.1976L 107.114 17.8427L 101.742 17.8427L 101.742 21.2412L 110.208 21.2412L 110.208 29.2816L 92.7281 29.2816L 92.7281 4.85645C 89.9016 12.3719 84.7266 26.1594 84.7266 26.1594L 83.5594 29.2816L 73.8844 29.2816L 63.0844 0.104054L 81.9281 0.104054L 79.4813 8.14446L 75.7687 8.14446L 77.8781 15.4803L 78.5531 17.8841Z"/>
<path id="path6_fill" d="M 180 0.117849L 180 8.14446L 171.52 8.14446L 171.52 11.2252L 176.906 11.2252L 176.906 17.8565L 171.52 17.8565L 171.52 21.255L 180 21.255L 180 29.2954L 162.52 29.2954L 162.52 0.117849L 180 0.117849Z"/>
</defs>
</svg>
