<svg width="196" height="40" viewBox="0 0 196 40" version="1.1" xmlns="http://www.w3.org/2000/svg" xmlns:xlink="http://www.w3.org/1999/xlink" xmlns:figma="http://www.figma.com/figma/ns">
<title>wired-logo</title>
<desc>Created using Figma</desc>
<g id="Canvas" transform="translate(66 -3037)" figma:type="canvas">
<g id="wired-logo" style="mix-blend-mode:normal;" figma:type="vector">
<use xlink:href="#path0_fill" transform="translate(-66 3037)" fill="#000000" fill-opacity="0.2" style="mix-blend-mode:normal;"/>
<use xlink:href="#path1_fill" transform="translate(-66 3037)" fill="#000000" fill-opacity="0.2" style="mix-blend-mode:normal;"/>
<use xlink:href="#path2_fill" transform="translate(-66 3037)" fill="#000000" fill-opacity="0.2" style="mix-blend-mode:normal;"/>
<use xlink:href="#path3_fill" transform="translate(-66 3037)" fill="#000000" fill-opacity="0.2" style="mix-blend-mode:normal;"/>
<use xlink:href="#path4_fill" transform="translate(-66 3037)" fill="#000000" fill-opacity="0.2" style="mix-blend-mode:normal;"/>
<use xlink:href="#path5_fill" transform="translate(-66 3037)" fill="#000000" fill-opacity="0.2" style="mix-blend-mode:normal;"/>
<use xlink:href="#path6_fill" transform="translate(-66 3037)" fill="#000000" fill-opacity="0.2" style="mix-blend-mode:normal;"/>
</g>
</g>
<defs>
<path id="path0_fill" fill-rule="evenodd" d="M 0 0L 39.2244 0L 39.2244 40L 0 40L 0 0ZM 2.88867 6.27811C 3.94951 11.208 4.9439 16.154 5.93822 21.0998L 5.94123 21.1148L 5.94424 21.1298L 5.94729 21.145C 6.59012 24.342 7.23295 27.5392 7.89378 30.7317C 7.98814 31.0306 8.03569 31.359 8.08354 31.6893C 8.19184 32.437 8.30165 33.1954 8.95931 33.6488C 10.67 33.922 12.4247 33.8536 14.1501 33.7365C 15.0512 33.7646 15.2944 32.7495 15.4637 32.0424L 15.4845 31.9561C 16.0601 29.1218 16.6603 26.2922 17.2604 23.4626L 17.2618 23.4563C 17.8893 20.4977 18.5167 17.5392 19.1161 14.5756C 19.209 14.039 19.3752 13.5171 19.6293 13.0341C 20.5438 16.9289 21.3588 20.8448 22.1736 24.7603L 22.1739 24.7613L 22.1742 24.7629C 22.6614 27.1038 23.1485 29.4444 23.6569 31.7804C 23.6948 31.9157 23.7265 32.0576 23.7587 32.2011C 23.8842 32.7609 24.0153 33.346 24.5367 33.6683C 26.4038 33.8927 28.3198 33.9122 30.182 33.6537C 30.7264 33.3325 30.8509 32.7339 30.9703 32.1595L 30.9706 32.1581C 30.9979 32.0265 31.0251 31.8961 31.0569 31.7707C 31.6637 28.7842 32.2559 25.7934 32.8482 22.8024L 32.8557 22.7644L 32.8639 22.7228C 33.9504 17.2345 35.0372 11.7452 36.2135 6.27811C 34.9806 6.28537 33.7504 6.28442 32.5209 6.28347L 32.211 6.28323L 31.2818 6.28287C 30.7639 9.2047 30.2865 12.134 29.8092 15.0635L 29.8088 15.0656L 29.8085 15.0678L 29.8081 15.0699C 29.0784 19.548 28.3486 24.0264 27.4742 28.478C 26.4628 24.5952 25.6591 20.6539 24.8553 16.7128C 24.3656 14.3114 23.8758 11.91 23.3392 9.52196C 23.2525 9.23245 23.1997 8.90744 23.1459 8.57624C 22.9994 7.67411 22.8455 6.72649 21.9803 6.32681C 20.5336 6.23904 19.077 6.23416 17.6302 6.32681C 16.8593 6.39101 16.6484 7.25062 16.492 7.88836L 16.462 8.00972C 15.9251 10.5728 15.3776 13.1336 14.8301 15.6938L 14.8287 15.7005L 14.8275 15.7057L 14.8246 15.7194C 14.0382 19.3975 13.252 23.0741 12.4981 26.7561C 12.3661 27.3366 12.1706 27.8926 11.9506 28.4439C 10.6358 21.0731 9.38944 13.683 8.25547 6.28287C 7.49059 6.28085 6.72571 6.28144 5.96083 6.28204C 4.93677 6.28287 3.91273 6.28358 2.88867 6.27811Z"/>
<path id="path1_fill" d="M 49.176 6.01467C 55.4959 6.00002 61.8109 6.00002 68.1259 6.01467C 68.1503 7.64887 68.1503 9.28782 68.1308 10.9269C 66.5353 10.9374 64.9398 10.9354 63.3443 10.9333L 63.1049 10.9331C 62.5465 10.9324 61.9881 10.9318 61.4296 10.9318C 61.4394 16.9756 61.4394 23.0245 61.4296 29.0683C 61.988 29.0683 62.5463 29.0677 63.1048 29.0671C 64.7804 29.0652 66.4566 29.0635 68.1357 29.0781C 68.1454 30.7123 68.1503 32.3513 68.1259 33.9854C 61.8109 34.0001 55.4959 34.0001 49.1808 33.9854C 49.1564 32.3464 49.1564 30.7123 49.176 29.0732C 50.7715 29.0627 52.367 29.0648 53.9625 29.0668L 54.2018 29.067C 54.7602 29.0677 55.3187 29.0683 55.8771 29.0683C 55.8673 23.0245 55.8673 16.9756 55.8771 10.9318C 55.3187 10.9318 54.7602 10.9324 54.2018 10.9331L 53.9625 10.9333C 52.367 10.9354 50.7715 10.9374 49.176 10.9269C 49.1564 9.28782 49.1564 7.65375 49.176 6.01467Z"/>
<path id="path2_fill" d="M 147.547 6.01956C 139.8 5.99514 132.058 5.99514 124.316 6.01956C 124.296 7.64875 124.296 9.28294 124.306 10.9121C 125.552 10.9365 126.799 10.9365 128.045 10.9268C 128.07 16.9756 128.07 23.0244 128.045 29.0732C 126.799 29.0635 125.557 29.0635 124.311 29.0781C 124.296 30.7122 124.291 32.3464 124.316 33.9804C 132.175 34.0049 140.03 34.0049 147.89 33.9804C 147.918 31.6457 147.913 29.311 147.908 26.9762L 147.908 26.973C 147.906 26.0747 147.904 25.1764 147.904 24.2781C 146.198 24.2634 144.493 24.2634 142.787 24.2829C 142.782 25.8781 142.782 27.4732 142.787 29.0683C 141.749 29.07 140.712 29.0683 139.674 29.0667L 139.646 29.0667C 137.584 29.0635 135.522 29.0602 133.461 29.0829C 133.429 27.5167 133.432 25.9485 133.436 24.3808L 133.436 24.3736C 133.438 23.5462 133.44 22.7193 133.436 21.8926L 140.768 21.8926L 140.768 17.2244L 133.436 17.2244C 133.436 16.7001 133.436 16.1757 133.436 15.6512L 133.436 15.6426C 133.435 14.0723 133.434 12.502 133.441 10.9317C 136.472 10.9365 139.497 10.9365 142.528 10.9317C 142.518 12.3268 142.518 13.7219 142.523 15.122L 147.552 15.122C 147.55 13.8212 147.551 12.5205 147.551 11.2198C 147.552 9.48635 147.553 7.75295 147.547 6.01956Z"/>
<path id="path3_fill" d="M 96.4204 10.7884C 95.0733 10.7997 93.7258 10.811 92.3791 10.7903L 92.3791 18.7365C 93.6015 18.7201 94.8254 18.7298 96.0494 18.7395C 98.0797 18.7557 100.11 18.7718 102.135 18.6683C 103.804 18.5704 103.899 16.6519 103.964 15.3412L 103.973 15.1659C 103.964 14.926 103.964 14.6731 103.964 14.4136C 103.964 13.1161 103.964 11.6561 102.844 10.8634C 100.709 10.7527 98.5683 10.7705 96.4268 10.7884L 96.4204 10.7884Z"/>
<path id="path4_fill" fill-rule="evenodd" d="M 117.307 0L 78.0823 0L 78.0823 40L 117.307 40L 117.307 0ZM 86.9438 33.7171L 86.9438 6.28287C 88.7408 6.28287 90.5382 6.28239 92.3358 6.2818C 95.9316 6.28073 99.5281 6.27965 103.122 6.28287C 104.794 6.28287 106.788 6.49759 107.854 7.96101C 109.124 9.63724 109.141 11.8087 109.156 13.823L 109.159 14.1268C 109.154 15.9219 109.071 17.8878 107.908 19.3609C 107.38 20.0673 106.585 20.332 105.789 20.5974L 105.788 20.5977L 105.787 20.5981C 105.374 20.7356 104.961 20.8733 104.584 21.0731C 104.711 21.1097 104.84 21.146 104.972 21.1828C 106.384 21.5779 108.018 22.0347 108.465 23.6097C 109.021 25.5398 109.044 27.5323 109.067 29.5277C 109.083 30.9312 109.099 32.3361 109.301 33.7219C 107.575 33.7171 105.855 33.7171 104.129 33.7171C 104.061 32.6266 103.983 31.5368 103.905 30.4468C 103.772 28.5774 103.639 26.7077 103.553 24.8341C 103.577 23.6537 102.296 22.8878 101.221 22.9902C 99.619 22.9797 98.017 22.9822 96.415 22.9846L 96.3717 22.9847L 96.3288 22.9848L 96.2862 22.9849L 96.244 22.9851C 94.9557 22.9873 93.6674 22.9896 92.3791 22.9854L 92.3791 33.7171L 86.9438 33.7171Z"/>
<path id="path5_fill" d="M 170.584 10.7902C 171.865 10.7965 173.146 10.7936 174.428 10.7908C 176.094 10.7871 177.76 10.7834 179.426 10.7999C 180.74 10.7853 182.241 11.4244 182.656 12.7707C 183.328 14.6862 183.305 16.7203 183.281 18.7419C 183.273 19.5003 183.264 20.257 183.292 21.0049C 183.275 21.4638 183.273 21.9279 183.27 22.3939C 183.259 24.1525 183.248 25.9375 182.51 27.561C 181.884 28.8878 180.266 29.239 178.932 29.2146C 177.817 29.2146 176.703 29.213 175.589 29.2115L 175.588 29.2115L 175.586 29.2115L 175.585 29.2115C 173.917 29.2091 172.25 29.2067 170.584 29.2097L 170.584 10.7902Z"/>
<path id="path6_fill" fill-rule="evenodd" d="M 156.287 0L 196 0L 196 40L 156.287 40L 156.287 0ZM 165.148 6.28287L 165.148 33.7171C 166.89 33.7134 168.631 33.7153 170.372 33.7172C 173.199 33.7205 176.025 33.7236 178.854 33.7025C 181.669 33.6488 184.949 33.1268 186.645 30.6098C 188.184 28.1512 188.346 25.2649 188.505 22.4257C 188.551 21.6144 188.596 20.8071 188.673 20.0146C 188.594 19.2096 188.548 18.3886 188.503 17.5634L 188.502 17.5624C 188.345 14.7283 188.185 11.8457 186.645 9.39024C 185.066 7.03411 182.045 6.41459 179.391 6.31705C 176.399 6.26786 173.406 6.27489 170.412 6.28192L 170.358 6.28204C 168.621 6.28609 166.884 6.29002 165.148 6.28287Z"/>
</defs>
</svg>
